PathFileType  4	(X/Y/Z) C:\Users\wagnerel85475\Documents\Thesis\opencap-core\Data\3375ffbc-daeb-4a43-b4f7-ac9899cd4c71\MarkerData\PreAugmentation
DataRate	CameraRate	NumFrames	NumMarkers	Units	OrigDataRate	OrigDataStartFrame	OrigNumFrames
60.0	60.0	11	20	m	60.0	720	822
Frame#	Time	Neck			RShoulder			RElbow			RWrist			LShoulder			LElbow			LWrist			midHip			RHip			RKnee			RAnkle			LHip			LKnee			LAnkle			LBigToe			LSmallToe			LHeel			RBigToe			RSmallToe			RHeel			
		X1	Y1	Z1	X2	Y2	Z2	X3	Y3	Z3	X4	Y4	Z4	X5	Y5	Z5	X6	Y6	Z6	X7	Y7	Z7	X8	Y8	Z8	X9	Y9	Z9	X10	Y10	Z10	X11	Y11	Z11	X12	Y12	Z12	X13	Y13	Z13	X14	Y14	Z14	X15	Y15	Z15	X16	Y16	Z16	X17	Y17	Z17	X18	Y18	Z18	X19	Y19	Z19	X20	Y20	Z20	

720	11.9833333	0.7982900	0.8484500	-0.0355000	0.8034000	0.8460600	0.1319800	0.9523800	0.6789800	0.1859400	1.2969400	0.7096900	0.0771400	0.8260200	0.8548800	-0.2106700	1.1193400	0.6603800	-0.2473700	1.3698600	0.6972100	-0.1076400	0.3860400	0.4451600	-0.0525000	0.4003600	0.4477400	0.0687700	0.7528400	0.2592400	0.2133500	0.5407000	-0.1843400	0.1263200	0.3610900	0.4485600	-0.1790400	0.7563700	0.2650300	-0.2954500	0.5412600	-0.1979200	-0.2559300	0.7498100	-0.2359200	-0.3286800	0.7097100	-0.2365600	-0.3478700	0.4619400	-0.2486300	-0.2506700	0.6738000	-0.2409100	0.2655200	0.6484500	-0.2356200	0.2745800	0.5140500	-0.2202700	0.1009900
721	12.0000000	0.7919800	0.8691700	-0.0327500	0.7994300	0.8685700	0.1343900	0.9651600	0.7124800	0.1871200	1.3012900	0.7350400	0.0795100	0.8341600	0.8793100	-0.2107400	1.1026900	0.6902700	-0.2537300	1.3660000	0.7185000	-0.1057300	0.3906000	0.4654100	-0.0543600	0.3932400	0.4710800	0.0676700	0.7624400	0.2748800	0.2068900	0.5358400	-0.1845900	0.1286200	0.3661800	0.4632600	-0.1815000	0.7562900	0.2671900	-0.2959100	0.5415300	-0.1982500	-0.2559800	0.7491900	-0.2364800	-0.3289600	0.7095000	-0.2364600	-0.3481100	0.4678000	-0.2443100	-0.2489700	0.6686500	-0.2407400	0.2679900	0.6438100	-0.2375800	0.2767200	0.5194500	-0.2162300	0.0989500
722	12.0166667	0.7874300	0.8889500	-0.0349000	0.7986700	0.8905900	0.1344400	0.9932000	0.7371000	0.1923900	1.3160000	0.7619700	0.0850000	0.8289700	0.9006200	-0.2133500	1.1068000	0.7144700	-0.2518600	1.3688000	0.7385800	-0.1031000	0.3781400	0.4803700	-0.0542600	0.3739200	0.4792400	0.0656500	0.7561600	0.2782100	0.2062700	0.5356400	-0.1842500	0.1285700	0.3667900	0.4831800	-0.1816300	0.7512200	0.2659600	-0.2979200	0.5412000	-0.1959000	-0.2562800	0.7497600	-0.2359600	-0.3287000	0.7046900	-0.2382300	-0.3501100	0.4674400	-0.2441400	-0.2487900	0.6691000	-0.2408300	0.2678600	0.6435600	-0.2370900	0.2773400	0.5194000	-0.2184400	0.0983300
723	12.0333333	0.7809900	0.9127900	-0.0371800	0.7880700	0.9134300	0.1353000	1.0242000	0.7586200	0.1957800	1.3241000	0.7833800	0.0887900	0.8282700	0.9238300	-0.2132400	1.1037400	0.7322800	-0.2506900	1.3675300	0.7622200	-0.1026100	0.3903200	0.5013300	-0.0496700	0.3930400	0.5049700	0.0675500	0.7517300	0.2787600	0.2081600	0.5409000	-0.1827700	0.1260100	0.3832800	0.5019500	-0.1699900	0.7411000	0.2635800	-0.2982000	0.5360000	-0.1981900	-0.2540700	0.7492300	-0.2342700	-0.3286600	0.7044900	-0.2341900	-0.3504100	0.4737000	-0.2442900	-0.2470700	0.6794600	-0.2394300	0.2664500	0.6499000	-0.2357100	0.2782300	0.5191000	-0.2171800	0.0982800
724	12.0500000	0.7812000	0.9441100	-0.0371200	0.7930800	0.9405600	0.1372200	1.0290400	0.7767600	0.2045200	1.3300400	0.8052600	0.0910200	0.8294300	0.9530100	-0.2179200	1.1060500	0.7560700	-0.2484100	1.3639100	0.7806400	-0.1045600	0.3837200	0.5128100	-0.0522000	0.3896000	0.5151900	0.0624300	0.7459300	0.2816800	0.2070000	0.5406300	-0.1824300	0.1259500	0.3719000	0.5154900	-0.1746800	0.7412700	0.2695600	-0.2982200	0.5356200	-0.1978100	-0.2539600	0.7449400	-0.2355300	-0.3305500	0.7096800	-0.2341100	-0.3518600	0.4673400	-0.2422500	-0.2438400	0.6802000	-0.2398700	0.2662800	0.6503000	-0.2360400	0.2780500	0.5135100	-0.2161900	0.0965200
725	12.0666667	0.7796700	0.9729400	-0.0372200	0.7876400	0.9692500	0.1354300	0.9562700	0.8028500	0.1842700	1.2603000	0.8263800	0.0669400	0.8262100	0.9780200	-0.2180300	1.0897500	0.7806100	-0.2530200	1.3595800	0.8023200	-0.1065500	0.3832600	0.5317900	-0.0518700	0.3792300	0.5317000	0.0685400	0.7296100	0.2800800	0.2060300	0.5348200	-0.1847600	0.1241900	0.3820600	0.5380900	-0.1702200	0.7401500	0.2816200	-0.2886100	0.5359000	-0.1981800	-0.2540200	0.7542600	-0.2324700	-0.3307700	0.7096000	-0.2341100	-0.3521000	0.4679400	-0.2463400	-0.2447100	0.6846500	-0.2364200	0.2633300	0.6552500	-0.2327600	0.2750600	0.5129400	-0.2174000	0.0961200
726	12.0833333	0.7801600	0.9981200	-0.0371100	0.7872200	0.9983700	0.1353900	1.0293500	0.8324400	0.2047600	1.3258200	0.8513700	0.0891200	0.8267100	1.0037200	-0.2183500	1.0831500	0.8073600	-0.2544600	1.3554300	0.8265500	-0.1081700	0.3953400	0.5551200	-0.0480400	0.3970100	0.5511600	0.0738700	0.7237700	0.2829600	0.2048400	0.5345400	-0.1845100	0.1241400	0.3946000	0.5606700	-0.1706400	0.7353900	0.2865700	-0.2869400	0.5304300	-0.1997300	-0.2524200	0.7498700	-0.2338200	-0.3283600	0.7097000	-0.2341300	-0.3518800	0.4624400	-0.2478400	-0.2475800	0.6798900	-0.2412600	0.2666800	0.6499800	-0.2376300	0.2784500	0.5132000	-0.2187400	0.0961700
727	12.1000000	0.7835900	1.0234900	-0.0396500	0.7862600	1.0229400	0.1354500	1.1105500	0.8427000	0.2380200	1.3225000	0.8761100	0.0883200	0.8244500	1.0311300	-0.2184600	1.0741300	0.8303300	-0.2543500	1.3426500	0.8497100	-0.1137600	0.3831200	0.5680300	-0.0471600	0.3995600	0.5693600	0.0740500	0.7231400	0.2860500	0.1995400	0.5297400	-0.1865300	0.1267800	0.3994400	0.5756600	-0.1683000	0.7246100	0.2903100	-0.2869900	0.5361900	-0.1939000	-0.2548100	0.7492300	-0.2364900	-0.3290100	0.7097600	-0.2362600	-0.3524400	0.4623700	-0.2458600	-0.2473700	0.6794400	-0.2411100	0.2667900	0.6545700	-0.2360000	0.2758700	0.5077500	-0.2209600	0.0991200
728	12.1166667	0.7746700	1.0492000	-0.0350200	0.7701000	1.0510800	0.1343000	1.0158900	0.8828200	0.2117400	1.3213500	0.9009400	0.0875400	0.8197400	1.0609800	-0.2209000	1.0704100	0.8502900	-0.2532000	1.3345600	0.8683000	-0.1173300	0.4003300	0.5856700	-0.0505400	0.3971200	0.5842900	0.0736600	0.7127300	0.2879200	0.2009400	0.5294800	-0.1862400	0.1267600	0.4009200	0.5939400	-0.1684000	0.7197400	0.2910400	-0.2847600	0.5299900	-0.1955100	-0.2516900	0.7449200	-0.2377200	-0.3308900	0.7098300	-0.2362700	-0.3522200	0.4673200	-0.2423500	-0.2438700	0.6847900	-0.2379400	0.2636200	0.6550700	-0.2343000	0.2753300	0.5079000	-0.2207000	0.0988100
729	12.1333333	0.7679500	1.0778700	-0.0371000	0.7646500	1.0777400	0.1369900	1.0162400	0.9013300	0.2124200	1.3033200	0.9173700	0.0839900	0.8079000	1.0854500	-0.2209000	1.0556000	0.8728900	-0.2506400	1.3293500	0.8847000	-0.1232000	0.4064300	0.6076700	-0.0483100	0.4043200	0.6044900	0.0763800	0.7167900	0.2993700	0.1981700	0.5297100	-0.1846900	0.1264200	0.4045800	0.6118400	-0.1709600	0.7090300	0.2907100	-0.2847700	0.5303500	-0.1958400	-0.2517600	0.7443500	-0.2382300	-0.3312300	0.7097200	-0.2362500	-0.3524700	0.4677700	-0.2424900	-0.2439900	0.6843100	-0.2378500	0.2637100	0.6596800	-0.2327800	0.2727200	0.5015700	-0.2213300	0.0969500
730	12.1500000	0.7682900	1.1087100	-0.0372400	0.7642600	1.1038700	0.1369400	1.0068800	0.9265500	0.2126100	1.2855700	0.9366200	0.0880200	0.7932000	1.1058500	-0.2278000	1.0467200	0.8997400	-0.2557000	1.3258800	0.9117200	-0.1211500	0.4116500	0.6233200	-0.0511300	0.4255400	0.6233800	0.0745200	0.7113200	0.3000300	0.1966600	0.5294900	-0.1844100	0.1264200	0.4121100	0.6260400	-0.1687500	0.7038900	0.2936200	-0.2823300	0.5357100	-0.1915200	-0.2543800	0.7449500	-0.2377300	-0.3308800	0.7048100	-0.2358500	-0.3540900	0.4731500	-0.2403700	-0.2462300	0.6797400	-0.2411300	0.2666700	0.6545700	-0.2358000	0.2757400	0.5018200	-0.2234600	0.0962800
